<svg width="100" height="100" viewBox="0 0 100 100" fill="none" xmlns="http://www.w3.org/2000/svg">
<path d="M53.5 7C53.5 5.067 51.933 3.5 50 3.5C48.067 3.5 46.5 5.067 46.5 7L53.5 7ZM47.5251 78.3638C48.892 79.7306 51.108 79.7306 52.4749 78.3638L74.7487 56.0899C76.1156 54.7231 76.1156 52.507 74.7487 51.1401C73.3819 49.7733 71.1658 49.7733 69.799 51.1401L50 70.9391L30.201 51.1401C28.8342 49.7733 26.6181 49.7733 25.2513 51.1401C23.8844 52.507 23.8844 54.7231 25.2513 56.0899L47.5251 78.3638ZM46.5 7L46.5 75.8889L53.5 75.8889L53.5 7L46.5 7Z" fill="white"/>
<line x1="22.5" y1="89.6111" x2="77.5" y2="89.6111" stroke="white" stroke-width="7" stroke-linecap="round"/>
</svg>
